<svg width="100" height="100" viewBox="0 0 100 100" fill="none" xmlns="http://www.w3.org/2000/svg">
<path d="M50 11C42.2865 11 34.7463 13.2873 28.3328 17.5727C21.9193 21.8581 16.9205 27.949 13.9687 35.0753C11.0169 42.2017 10.2446 50.0433 11.7494 57.6085C13.2542 65.1738 16.9686 72.1229 22.4229 77.5772C27.8771 83.0314 34.8262 86.7458 42.3915 88.2506C49.9568 89.7554 57.7984 88.9831 64.9247 86.0313C72.051 83.0795 78.142 78.0808 82.4273 71.6672C86.7127 65.2537 89 57.7135 89 50C88.9868 39.6606 84.8736 29.7485 77.5626 22.4374C70.2515 15.1264 60.3394 11.0132 50 11ZM62 53H45.24L49.12 56.88C49.6818 57.4425 49.9974 58.205 49.9974 59C49.9974 59.795 49.6818 60.5575 49.12 61.12C48.5575 61.6818 47.795 61.9974 47 61.9974C46.205 61.9974 45.4425 61.6818 44.88 61.12L35.88 52.12C35.7403 51.978 35.6131 51.824 35.5 51.66L35.38 51.44C35.33 51.34 35.27 51.25 35.23 51.15C35.19 51.05 35.17 50.95 35.14 50.85C35.1088 50.7648 35.0821 50.678 35.06 50.59C34.98 50.2007 34.98 49.7993 35.06 49.41C35.0821 49.322 35.1088 49.2352 35.14 49.15C35.14 49.05 35.14 48.95 35.23 48.85C35.32 48.75 35.33 48.66 35.38 48.56L35.5 48.34C35.6131 48.176 35.7403 48.022 35.88 47.88L44.88 38.88C45.4487 38.3501 46.2009 38.0616 46.9781 38.0753C47.7553 38.089 48.4969 38.4039 49.0465 38.9535C49.5962 39.5032 49.911 40.2447 49.9247 41.0219C49.9384 41.7991 49.6499 42.5513 49.12 43.12L45.24 47H62C62.7957 47 63.5587 47.3161 64.1213 47.8787C64.684 48.4413 65 49.2044 65 50C65 50.7956 64.684 51.5587 64.1213 52.1213C63.5587 52.6839 62.7957 53 62 53Z" fill="url(#paint0_linear_853_16)"/>
<defs>
<linearGradient id="paint0_linear_853_16" x1="50" y1="11" x2="50" y2="89" gradientUnits="userSpaceOnUse">
<stop stop-color="#765197"/>
<stop offset="1" stop-color="#D171B9"/>
</linearGradient>
</defs>
</svg>
