<svg width="101" height="100" viewBox="0 0 101 100" fill="none" xmlns="http://www.w3.org/2000/svg">
<path d="M60.2671 50.8824C58.3999 50.268 55.712 50.4 52.2032 50.4H38.1063V68.8H53.1815C55.5368 68.8 57.1911 68.548 58.1439 68.372C59.8231 68.0712 61.2271 67.4888 62.3551 66.7864C63.4823 66.0856 64.4095 65.0224 65.1376 63.6816C65.864 62.3408 66.228 60.772 66.228 59.0176C66.228 56.9632 65.7015 55.3856 64.6479 53.8688C63.5951 52.352 62.1351 51.4968 60.2671 50.8824ZM58.3319 42.4696C60.1855 41.9192 61.5832 40.9576 62.5232 39.68C63.464 38.4016 63.9335 36.7752 63.9335 34.8448C63.9335 33.016 63.4944 31.3936 62.6167 30.0016C61.7391 28.6096 60.4872 28.0712 58.8576 27.5568C57.228 27.044 54.4335 27.2 50.4735 27.2H38.1063V43.2H51.3759C54.6095 43.2 56.9271 42.896 58.3319 42.4696ZM100.506 13.3C100.506 5.9544 94.552 0 87.2064 0H13.8063C6.46075 0 0.506348 5.9544 0.506348 13.3V86.7C0.506348 94.0456 6.46075 100 13.8063 100H87.2064C94.552 100 100.506 94.0456 100.506 86.7V13.3ZM72.1488 66.196C71.0592 68.4144 69.7112 70.1248 68.1071 71.328C66.5023 72.5312 64.4903 73.552 62.0719 74.1664C59.6544 74.7816 56.6895 75.2 53.1815 75.2H30.9063V20H52.8423C57.0535 20 60.4303 20.4872 62.9743 21.6016C65.5191 22.7176 67.5111 24.3992 68.9535 26.7176C70.3943 29.036 71.1152 31.4432 71.1152 33.9744C71.1152 36.3304 70.4752 38.5408 69.1975 40.6208C67.9192 42.7024 65.9887 44.376 63.4079 45.6544C66.7407 46.632 69.3039 48.2976 71.0959 50.6528C72.8879 53.0088 73.784 55.7904 73.784 58.9984C73.784 61.58 73.2392 63.9784 72.1488 66.196Z" fill="#5B4282"/>
</svg>
