<svg width="121" height="121" viewBox="0 0 121 121" fill="none" xmlns="http://www.w3.org/2000/svg">
<path d="M22.3169 102.854L13.8242 7.5625H107.176L98.6717 102.839L60.4432 113.438L22.3169 102.854Z" fill="#1572B6"/>
<path d="M60.5 105.338L91.3928 96.7735L98.6604 15.3557H60.5V105.338Z" fill="#33A9DC"/>
<path d="M60.5 49.8785H75.9653L77.0316 37.9108H60.5V26.223H60.5416H89.8047L89.5249 29.3576L86.6549 61.5663H60.5V49.8785Z" fill="white"/>
<path d="M60.5718 80.2305L60.5189 80.2457L47.5038 76.7291L46.6719 67.4083H40.3459H34.9387L36.576 85.7587L60.5151 92.4062L60.5718 92.391V80.2305Z" fill="#EBEBEB"/>
<path d="M74.9709 61.071L73.5642 76.7216L60.5303 80.2381V92.3986L84.4883 85.7588L84.666 83.785L86.6965 61.071H74.9709Z" fill="white"/>
<path d="M60.5416 26.223V33.483V37.8806V37.9108H32.3486H32.3108L32.0763 35.2828L31.5432 29.3576L31.2634 26.223H60.5416Z" fill="#EBEBEB"/>
<path d="M60.5 49.8785V57.1385V61.5361V61.5663H47.6853H47.6475L47.4131 58.9384L46.8837 53.0131L46.6039 49.8785H60.5Z" fill="#EBEBEB"/>
</svg>
