<svg width="79" height="78" viewBox="0 0 79 78" fill="none" xmlns="http://www.w3.org/2000/svg">
<path d="M77.6279 39C77.6279 60.2622 60.363 77.5 39.0639 77.5C17.7649 77.5 0.5 60.2622 0.5 39C0.5 17.7378 17.7649 0.5 39.0639 0.5C60.363 0.5 77.6279 17.7378 77.6279 39Z" stroke="url(#paint0_linear_784_34)"/>
<path d="M61.6118 22.5855C60.96 21.6309 59.8638 21 58.6266 21H19.6131C18.402 21 17.3311 21.6085 16.6742 22.5298L39.1914 41.3053L61.6118 22.5855Z" fill="url(#paint1_linear_784_34)"/>
<path d="M16 25.7295V52.3867C16 54.3739 17.6259 55.9999 19.6132 55.9999H58.6267C60.6139 55.9999 62.2398 54.3739 62.2398 52.3867V25.8256L39.1915 45.0686L16 25.7295Z" fill="url(#paint2_linear_784_34)"/>
<defs>
<linearGradient id="paint0_linear_784_34" x1="39.0639" y1="0" x2="39.0639" y2="78" gradientUnits="userSpaceOnUse">
<stop stop-color="#765197"/>
<stop offset="1" stop-color="#D171B9"/>
</linearGradient>
<linearGradient id="paint1_linear_784_34" x1="39.143" y1="21" x2="39.143" y2="41.3053" gradientUnits="userSpaceOnUse">
<stop stop-color="#765197"/>
<stop offset="1" stop-color="#D171B9"/>
</linearGradient>
<linearGradient id="paint2_linear_784_34" x1="39.1199" y1="25.7295" x2="39.1199" y2="55.9999" gradientUnits="userSpaceOnUse">
<stop stop-color="#765197"/>
<stop offset="1" stop-color="#D171B9"/>
</linearGradient>
</defs>
</svg>
