<svg width="79" height="78" viewBox="0 0 79 78" fill="none" xmlns="http://www.w3.org/2000/svg">
<path d="M77.6279 39C77.6279 60.2622 60.363 77.5 39.0639 77.5C17.7649 77.5 0.5 60.2622 0.5 39C0.5 17.7378 17.7649 0.5 39.0639 0.5C60.363 0.5 77.6279 17.7378 77.6279 39Z" stroke="url(#paint0_linear_656_411)"/>
<path d="M19.3441 18C17.1073 18 15.2749 19.8293 15.2749 22.0625V50.5C15.2749 52.733 17.1073 54.5625 19.3441 54.5625H22.241C22.3437 54.5783 22.4482 54.5783 22.5509 54.5625H56.8288C56.9315 54.5783 57.0361 54.5783 57.1388 54.5625H60.0357C62.2724 54.5625 64.1048 52.733 64.1048 50.5V22.0625C64.1048 19.8293 62.2724 18 60.0357 18H57.0315H22.3959H19.3441ZM19.3441 20.0312H22.0343L39.0421 34.0159C39.2244 34.1662 39.4535 34.2484 39.6899 34.2484C39.9263 34.2484 40.1553 34.1662 40.3376 34.0159L57.3454 20.0312H60.0357C61.1804 20.0312 62.0702 20.9195 62.0702 22.0625V50.5C62.0702 51.6428 61.1804 52.5312 60.0357 52.5312H58.0011V26.125C58.0015 25.9322 57.9469 25.7432 57.8437 25.5802C57.7405 25.4172 57.593 25.2869 57.4184 25.2045C57.2437 25.1221 57.0492 25.091 56.8576 25.1149C56.6659 25.1388 56.485 25.2167 56.3361 25.3395L39.6899 39.0266L23.0437 25.3395C22.8579 25.1874 22.6242 25.1059 22.384 25.1094C22.1163 25.1125 21.8606 25.2209 21.6724 25.411C21.4842 25.6012 21.3787 25.8577 21.3786 26.125V52.5312H19.3441C18.1993 52.5312 17.3095 51.6428 17.3095 50.5V22.0625C17.3095 20.9195 18.1993 20.0312 19.3441 20.0312ZM25.2332 20.0312H54.1465L39.6899 31.9172L25.2332 20.0312ZM23.4132 28.2753L39.0421 41.1253C39.2244 41.2756 39.4535 41.3578 39.6899 41.3578C39.9263 41.3578 40.1553 41.2756 40.3376 41.1253L55.9665 28.2753V52.5312H23.4132V28.2753Z" fill="url(#paint1_linear_656_411)"/>
<defs>
<linearGradient id="paint0_linear_656_411" x1="39.0639" y1="0" x2="39.0639" y2="78" gradientUnits="userSpaceOnUse">
<stop stop-color="#765197"/>
<stop offset="1" stop-color="#D171B9"/>
</linearGradient>
<linearGradient id="paint1_linear_656_411" x1="39.6899" y1="18" x2="39.6899" y2="54.5744" gradientUnits="userSpaceOnUse">
<stop stop-color="#765197"/>
<stop offset="1" stop-color="#D171B9"/>
</linearGradient>
</defs>
</svg>
