<svg width="66" height="65" viewBox="0 0 66 65" fill="none" xmlns="http://www.w3.org/2000/svg">
<g clip-path="url(#clip0_656_379)">
<path d="M30.7418 4.00598C26.6955 3.92521 22.6748 4.66397 18.9223 6.17766C15.1699 7.69135 11.7636 9.94859 8.90899 12.8131C6.05443 15.6776 3.81084 19.09 2.31365 22.8442C0.816455 26.5984 0.0967235 30.6166 0.1979 34.6563C0.203468 42.0051 2.84828 49.1083 7.65209 54.676C12.4559 60.2437 19.1002 63.9068 26.3784 65V41.2242H17.6516V32.4669H26.3784V23.7097C26.2607 22.5345 26.4053 21.3478 26.8016 20.2349C27.1979 19.122 27.8362 18.1106 28.6705 17.2734C29.5049 16.4361 30.5146 15.7937 31.6272 15.3925C32.7398 14.9912 33.9276 14.8409 35.1052 14.9525H43.832V23.7097H37.5924C36.9726 23.674 36.3637 23.8839 35.898 24.2938C35.4323 24.7037 35.1474 25.2805 35.1052 25.899V32.4669H43.832L42.7412 41.2241H35.1052V65C42.3908 63.9232 49.045 60.2649 53.852 54.6936C58.6589 49.1222 61.2975 42.0099 61.2857 34.6563C61.341 30.6289 60.5898 26.631 59.0763 22.8975C57.5628 19.164 55.3175 15.77 52.4723 12.9148C49.627 10.0596 46.2391 7.80075 42.5074 6.27089C38.7758 4.74103 34.7756 3.97099 30.7418 4.00598Z" fill="#765197"/>
<path d="M30.7418 4.00598C26.6955 3.92521 22.6748 4.66397 18.9223 6.17766C15.1699 7.69135 11.7636 9.94859 8.90899 12.8131C6.05443 15.6776 3.81084 19.09 2.31365 22.8442C0.816455 26.5984 0.0967235 30.6166 0.1979 34.6563C0.203468 42.0051 2.84828 49.1083 7.65209 54.676C12.4559 60.2437 19.1002 63.9068 26.3784 65V41.2242H17.6516V32.4669H26.3784V23.7097C26.2607 22.5345 26.4053 21.3478 26.8016 20.2349C27.1979 19.122 27.8362 18.1106 28.6705 17.2734C29.5049 16.4361 30.5146 15.7937 31.6272 15.3925C32.7398 14.9912 33.9276 14.8409 35.1052 14.9525H43.832V23.7097H37.5924C36.9726 23.674 36.3637 23.8839 35.898 24.2938C35.4323 24.7037 35.1474 25.2805 35.1052 25.899V32.4669H43.832L42.7412 41.2241H35.1052V65C42.3908 63.9232 49.045 60.2649 53.852 54.6936C58.6589 49.1222 61.2975 42.0099 61.2857 34.6563C61.341 30.6289 60.5898 26.631 59.0763 22.8975C57.5628 19.164 55.3175 15.77 52.4723 12.9148C49.627 10.0596 46.2391 7.80075 42.5074 6.27089C38.7758 4.74103 34.7756 3.97099 30.7418 4.00598Z" fill="url(#paint0_linear_656_379)"/>
</g>
<defs>
<linearGradient id="paint0_linear_656_379" x1="30.7385" y1="4" x2="30.7385" y2="65" gradientUnits="userSpaceOnUse">
<stop stop-color="#765197"/>
<stop offset="1" stop-color="#D171B9"/>
</linearGradient>
<clipPath id="clip0_656_379">
<rect width="65.1066" height="65" fill="white" transform="translate(0.188538)"/>
</clipPath>
</defs>
</svg>
