<svg width="66" height="65" viewBox="0 0 66 65" fill="none" xmlns="http://www.w3.org/2000/svg">
<g clip-path="url(#clip0_868_20)">
<path d="M30.7417 4.00598C26.6954 3.92521 22.6747 4.66397 18.9223 6.17766C15.1698 7.69135 11.7635 9.94859 8.90893 12.8131C6.05437 15.6776 3.81078 19.09 2.31358 22.8442C0.816394 26.5984 0.0966625 30.6166 0.197839 34.6563C0.203407 42.0051 2.84822 49.1083 7.65203 54.676C12.4558 60.2437 19.1001 63.9068 26.3783 65V41.2242H17.6515V32.4669H26.3783V23.7097C26.2607 22.5345 26.4052 21.3478 26.8015 20.2349C27.1978 19.122 27.8361 18.1106 28.6705 17.2734C29.5048 16.4361 30.5146 15.7937 31.6272 15.3925C32.7397 14.9912 33.9275 14.8409 35.1052 14.9525H43.832V23.7097H37.5923C36.9725 23.674 36.3636 23.8839 35.8979 24.2938C35.4322 24.7037 35.1473 25.2805 35.1052 25.899V32.4669H43.832L42.7411 41.2241H35.1052V65C42.3907 63.9232 49.045 60.2649 53.8519 54.6936C58.6588 49.1222 61.2975 42.0099 61.2856 34.6563C61.3409 30.6289 60.5897 26.631 59.0763 22.8975C57.5628 19.164 55.3175 15.77 52.4722 12.9148C49.6269 10.0596 46.239 7.80075 42.5073 6.27089C38.7757 4.74103 34.7755 3.97099 30.7417 4.00598Z" fill="#020B24"/>
</g>
<defs>
<clipPath id="clip0_868_20">
<rect width="65.1066" height="65" fill="white" transform="translate(0.188477)"/>
</clipPath>
</defs>
</svg>
