<svg width="100" height="100" viewBox="0 0 100 100" fill="none" xmlns="http://www.w3.org/2000/svg">
<rect width="100" height="100" rx="10" fill="#111719"/>
<path d="M39.3417 82C42.1706 82 44.8838 80.8762 46.8841 78.8758C48.8845 76.8754 50.0083 74.1623 50.0083 71.3334V60.6667H39.3417C36.5127 60.6667 33.7996 61.7905 31.7992 63.7909C29.7988 65.7913 28.675 68.5044 28.675 71.3334C28.675 74.1623 29.7988 76.8754 31.7992 78.8758C33.7996 80.8762 36.5127 82 39.3417 82Z" fill="#0ACF83"/>
<path d="M28.675 50C28.675 47.171 29.7988 44.4579 31.7992 42.4575C33.7996 40.4571 36.5127 39.3333 39.3417 39.3333H50.0083V60.6666H39.3417C36.5127 60.6666 33.7996 59.5428 31.7992 57.5425C29.7988 55.5421 28.675 52.829 28.675 50Z" fill="#A259FF"/>
<path d="M28.675 28.6667C28.675 25.8391 29.7977 23.1273 31.7963 21.1271C33.7948 19.127 36.5058 18.0022 39.3333 18H50V39.3333H39.3417C36.5127 39.3333 33.7996 38.2095 31.7992 36.2091C29.7988 34.2088 28.675 31.4956 28.675 28.6667Z" fill="#F24E1E"/>
<path d="M50.0083 18H60.675C63.504 18 66.2171 19.1238 68.2175 21.1242C70.2179 23.1246 71.3417 25.8377 71.3417 28.6667C71.3417 31.4956 70.2179 34.2088 68.2175 36.2091C66.2171 38.2095 63.504 39.3333 60.675 39.3333H50.0083V18Z" fill="#FF7262"/>
<path d="M71.3417 50C71.3417 52.829 70.2179 55.5421 68.2175 57.5425C66.2171 59.5428 63.504 60.6666 60.675 60.6666C57.846 60.6666 55.1329 59.5428 53.1325 57.5425C51.1321 55.5421 50.0083 52.829 50.0083 50C50.0083 47.171 51.1321 44.4579 53.1325 42.4575C55.1329 40.4571 57.846 39.3333 60.675 39.3333C63.504 39.3333 66.2171 40.4571 68.2175 42.4575C70.2179 44.4579 71.3417 47.171 71.3417 50Z" fill="#1ABCFE"/>
</svg>
