<svg width="101" height="100" viewBox="0 0 101 100" fill="none" xmlns="http://www.w3.org/2000/svg">
<rect x="0.506348" width="99.9182" height="100" rx="10" fill="black"/>
<path d="M28.0895 79.6674C30.2053 81.4265 33.6991 82.8111 39.2714 81.7444C39.2819 83.3325 39.2948 84.7179 39.305 85.8227C39.3153 86.9298 39.323 87.7549 39.323 88.2193C39.323 88.6694 39.1677 89.1194 38.8454 89.4146C38.5419 89.6926 38.0123 89.9042 37.1048 89.7454C20.7711 84.2878 8.99982 68.8619 8.99982 50.6822C8.99982 27.9358 27.4213 9.5 50.141 9.5C72.8678 9.5 91.2909 27.9359 91.2909 50.6822C91.2909 68.8576 79.5289 84.2737 63.2077 89.741C62.2818 89.9125 61.7494 89.7018 61.4473 89.4254C61.126 89.1315 60.9712 88.6781 60.9712 88.2193C60.9712 87.7691 60.9767 86.9768 60.984 85.9147C60.9878 85.3718 60.9921 84.7583 60.9963 84.084C61.0089 82.0926 61.0214 79.5749 61.0214 76.788C61.0214 73.4131 60.0463 70.9671 58.7617 69.4425C63.1136 68.8697 67.56 67.6695 71.0024 64.7859C74.7371 61.6575 77.2107 56.6172 77.2107 48.5021C77.2107 43.9427 75.6312 40.1783 73.0051 37.2103C73.5419 35.7357 74.6451 31.5734 72.4793 26.1025L72.3923 25.8827L72.1672 25.8104L72.0144 26.2865C72.1672 25.8104 72.1667 25.8103 72.1662 25.8101L72.1652 25.8098L72.1628 25.809L72.157 25.8072L72.1415 25.8027C72.1294 25.7992 72.1138 25.795 72.0948 25.7902C72.0566 25.7807 72.0044 25.7689 71.938 25.7569C71.8052 25.7328 71.6157 25.7077 71.3678 25.6963C70.8717 25.6734 70.1446 25.706 69.1722 25.9113C67.2592 26.3153 64.4014 27.387 60.4842 30.017C57.1751 29.1206 53.6476 28.6724 50.1484 28.6569L50.144 28.6569C46.6416 28.6723 43.1142 29.1206 39.8099 30.017C35.89 27.3869 33.0292 26.3153 31.1139 25.9113C30.1403 25.706 29.4122 25.6735 28.9155 25.6963C28.6673 25.7077 28.4775 25.7328 28.3445 25.7569C28.278 25.7689 28.2258 25.7806 28.1876 25.7902C28.1685 25.795 28.1529 25.7992 28.1409 25.8026L28.1254 25.8072L28.1196 25.8089L28.1172 25.8097L28.1161 25.81C28.1156 25.8102 28.1151 25.8104 28.2677 26.2865L28.1151 25.8104L27.8895 25.8826L27.8026 26.103C25.6433 31.5741 26.7473 35.7364 27.284 37.2106C24.663 40.1779 23.0731 43.9419 23.0731 48.5021C23.0731 56.5966 25.5429 61.6395 29.2686 64.7787C32.7056 67.6747 37.1447 68.8917 41.4864 69.4743C40.5516 70.5974 39.7873 72.2121 39.4462 74.3259C38.267 74.8249 36.3866 75.4104 34.3873 75.2316C32.2766 75.0429 29.9871 74.0003 28.2133 70.9625L28.2077 70.9525C28.2023 70.9431 28.1948 70.93 28.1851 70.9134C28.1658 70.8802 28.1377 70.8331 28.101 70.774C28.0276 70.6559 27.9194 70.4894 27.7767 70.2899C27.4918 69.8915 27.067 69.358 26.5045 68.8141C25.383 67.7295 23.6835 66.575 21.4353 66.4155L21.4209 66.4145L21.4063 66.4143L21.3999 66.9142C21.4063 66.4143 21.4062 66.4143 21.406 66.4143L21.4055 66.4143L21.4044 66.4143L21.4009 66.4142L21.3897 66.4142L21.3509 66.4143C21.3181 66.4146 21.2718 66.4154 21.2151 66.4174C21.1021 66.4213 20.9451 66.4301 20.7687 66.4496C20.4358 66.4863 19.9578 66.5682 19.5912 66.7774C19.4025 66.8851 19.1967 67.0527 19.0843 67.3109C18.9652 67.5845 18.986 67.8778 19.1023 68.1553C19.314 68.6606 19.882 69.2127 20.8316 69.8625L20.865 69.8854L20.8994 69.9015L20.9 69.9018L20.9007 69.9021L20.9011 69.9023L20.9016 69.9025L20.9158 69.9098C20.9306 69.9174 20.9551 69.9304 20.9884 69.9493C21.0551 69.9871 21.1573 70.0486 21.2881 70.1381C21.5496 70.3169 21.9259 70.6078 22.3623 71.0454C23.2319 71.9174 24.3472 73.3787 25.2678 75.7118L25.2713 75.7227C25.2774 75.7416 25.2863 75.768 25.298 75.8012C25.3215 75.8677 25.3565 75.9617 25.4047 76.0786C25.5011 76.3123 25.6508 76.6383 25.8675 77.0191C26.3005 77.78 27.0042 78.7651 28.0895 79.6674Z" fill="white" stroke="#765197"/>
</svg>
