<svg width="70" height="69" viewBox="0 0 70 69" fill="none" xmlns="http://www.w3.org/2000/svg">
<g clip-path="url(#clip0_868_34)">
<path fill-rule="evenodd" clip-rule="evenodd" d="M0.547363 34.4435C0.547363 15.4209 15.9936 0 35.0474 0C54.1011 0 69.5474 15.4209 69.5474 34.4435C69.5474 53.4661 54.1011 68.8871 35.0474 68.8871C15.9936 68.8871 0.547363 53.4661 0.547363 34.4435ZM24.9281 28.5276H17.1097V51.9805H24.9281V28.5276ZM25.4431 21.2728C25.3924 18.9732 23.7453 17.2218 21.0706 17.2218C18.3959 17.2218 16.6474 18.9732 16.6474 21.2728C16.6474 23.5246 18.3443 25.3265 20.9691 25.3265H21.0191C23.7453 25.3265 25.4431 23.5246 25.4431 21.2728ZM53.1245 38.5333C53.1245 31.3297 49.2674 27.9769 44.1224 27.9769C39.9714 27.9769 38.113 30.2532 37.0752 31.8501V28.5283H29.2558C29.3589 30.7289 29.2558 51.981 29.2558 51.981H37.0752V38.883C37.0752 38.1821 37.126 37.4829 37.3327 36.981C37.8978 35.5807 39.1843 34.131 41.3443 34.131C44.1746 34.131 45.3061 36.2815 45.3061 39.4331V51.9805H53.1242L53.1245 38.5333Z" fill="#020B24"/>
</g>
<defs>
<clipPath id="clip0_868_34">
<rect width="69" height="68.8871" fill="white" transform="translate(0.547363)"/>
</clipPath>
</defs>
</svg>
