<svg width="70" height="69" viewBox="0 0 70 69" fill="none" xmlns="http://www.w3.org/2000/svg">
<g clip-path="url(#clip0_656_399)">
<path fill-rule="evenodd" clip-rule="evenodd" d="M0.547485 34.4435C0.547485 15.4209 15.9937 0 35.0475 0C54.1013 0 69.5475 15.4209 69.5475 34.4435C69.5475 53.4661 54.1013 68.8871 35.0475 68.8871C15.9937 68.8871 0.547485 53.4661 0.547485 34.4435ZM24.9282 28.5276H17.1098V51.9805H24.9282V28.5276ZM25.4433 21.2728C25.3925 18.9732 23.7454 17.2218 21.0707 17.2218C18.3961 17.2218 16.6475 18.9732 16.6475 21.2728C16.6475 23.5246 18.3445 25.3265 20.9692 25.3265H21.0192C23.7454 25.3265 25.4433 23.5246 25.4433 21.2728ZM53.1246 38.5333C53.1246 31.3297 49.2675 27.9769 44.1226 27.9769C39.9715 27.9769 38.1131 30.2532 37.0754 31.8501V28.5283H29.2559C29.359 30.7289 29.2559 51.981 29.2559 51.981H37.0754V38.883C37.0754 38.1821 37.1261 37.4829 37.3328 36.981C37.8979 35.5807 39.1845 34.131 41.3445 34.131C44.1747 34.131 45.3062 36.2815 45.3062 39.4331V51.9805H53.1243L53.1246 38.5333Z" fill="#765197"/>
<path fill-rule="evenodd" clip-rule="evenodd" d="M0.547485 34.4435C0.547485 15.4209 15.9937 0 35.0475 0C54.1013 0 69.5475 15.4209 69.5475 34.4435C69.5475 53.4661 54.1013 68.8871 35.0475 68.8871C15.9937 68.8871 0.547485 53.4661 0.547485 34.4435ZM24.9282 28.5276H17.1098V51.9805H24.9282V28.5276ZM25.4433 21.2728C25.3925 18.9732 23.7454 17.2218 21.0707 17.2218C18.3961 17.2218 16.6475 18.9732 16.6475 21.2728C16.6475 23.5246 18.3445 25.3265 20.9692 25.3265H21.0192C23.7454 25.3265 25.4433 23.5246 25.4433 21.2728ZM53.1246 38.5333C53.1246 31.3297 49.2675 27.9769 44.1226 27.9769C39.9715 27.9769 38.1131 30.2532 37.0754 31.8501V28.5283H29.2559C29.359 30.7289 29.2559 51.981 29.2559 51.981H37.0754V38.883C37.0754 38.1821 37.1261 37.4829 37.3328 36.981C37.8979 35.5807 39.1845 34.131 41.3445 34.131C44.1747 34.131 45.3062 36.2815 45.3062 39.4331V51.9805H53.1243L53.1246 38.5333Z" fill="url(#paint0_linear_656_399)"/>
</g>
<defs>
<linearGradient id="paint0_linear_656_399" x1="35.0475" y1="0" x2="35.0475" y2="68.8871" gradientUnits="userSpaceOnUse">
<stop stop-color="#765197"/>
<stop offset="1" stop-color="#D171B9"/>
</linearGradient>
<clipPath id="clip0_656_399">
<rect width="69" height="68.8871" fill="white" transform="translate(0.547485)"/>
</clipPath>
</defs>
</svg>
