<svg width="70" height="69" viewBox="0 0 70 69" fill="none" xmlns="http://www.w3.org/2000/svg">
<g clip-path="url(#clip0_868_27)">
<path d="M41.653 21.4084H23.1406C21.5454 21.4103 20.0162 22.0437 18.8883 23.1698C17.7603 24.2959 17.1259 25.8226 17.124 27.4151V45.8973C17.1258 47.4898 17.7603 49.0166 18.8882 50.1427C20.0161 51.2688 21.5454 51.9022 23.1406 51.904H41.653C43.2481 51.9022 44.7774 51.2688 45.9054 50.1427C47.0333 49.0166 47.6678 47.4898 47.6695 45.8973V27.4151C47.6677 25.8226 47.0332 24.2959 45.9053 23.1698C44.7774 22.0437 43.2481 21.4103 41.653 21.4084ZM32.3968 45.8973C30.5661 45.8973 28.7765 45.3553 27.2543 44.3399C25.7321 43.3245 24.5457 41.8812 23.8452 40.1926C23.1446 38.504 22.9613 36.646 23.3184 34.8534C23.6756 33.0608 24.5571 31.4142 25.8517 30.1218C27.1462 28.8294 28.7955 27.9493 30.591 27.5927C32.3865 27.2361 34.2476 27.4191 35.939 28.1186C37.6303 28.818 39.076 30.0025 40.0931 31.5222C41.1101 33.0418 41.653 34.8285 41.653 36.6562C41.653 39.1071 40.6778 41.4576 38.9419 43.1906C37.206 44.9237 34.8517 45.8973 32.3968 45.8973ZM42.2389 29.0814C41.7812 29.0814 41.3338 28.9459 40.9532 28.6921C40.5727 28.4382 40.2761 28.0774 40.1009 27.6553C39.9258 27.2331 39.88 26.7686 39.9693 26.3204C40.0586 25.8723 40.2789 25.4606 40.6026 25.1376C40.9262 24.8145 41.3385 24.5944 41.7874 24.5053C42.2363 24.4161 42.7016 24.4619 43.1244 24.6367C43.5472 24.8116 43.9086 25.1077 44.1629 25.4876C44.4172 25.8676 44.5529 26.3142 44.5529 26.7712C44.5529 27.3839 44.3091 27.9715 43.8751 28.4048C43.4412 28.838 42.8526 29.0814 42.2389 29.0814Z" fill="#020B24"/>
<path d="M32.3967 30.6497C31.2067 30.6497 30.0435 31.0019 29.0541 31.662C28.0646 32.322 27.2935 33.2601 26.8381 34.3577C26.3827 35.4553 26.2636 36.663 26.4957 37.8282C26.7279 38.9934 27.3009 40.0637 28.1423 40.9037C28.9838 41.7438 30.0558 42.3159 31.2229 42.5476C32.39 42.7794 33.5997 42.6604 34.6991 42.2058C35.7985 41.7512 36.7381 40.9813 37.3992 39.9935C38.0604 39.0057 38.4132 37.8444 38.4132 36.6564C38.4114 35.0638 37.7769 33.5371 36.649 32.411C35.5211 31.2849 33.9918 30.6515 32.3967 30.6497Z" fill="#020B24"/>
<path d="M32.3968 4.3125C25.9893 4.3125 19.7257 6.20943 14.3981 9.7634C9.07048 13.3174 4.91811 18.3688 2.46607 24.2788C0.014037 30.1889 -0.627527 36.6921 0.622509 42.9662C1.87255 49.2403 4.95804 55.0034 9.48881 59.5267C14.0196 64.0501 19.7921 67.1305 26.0765 68.3785C32.3608 69.6265 38.8747 68.986 44.7945 66.538C50.7142 64.0899 55.7739 59.9444 59.3337 54.6255C62.8935 49.3066 64.7935 43.0532 64.7935 36.6562C64.7935 28.0781 61.3803 19.8514 55.3047 13.7858C49.2292 7.72013 40.9889 4.3125 32.3968 4.3125ZM50.9092 45.8973C50.9092 48.3482 49.934 50.6987 48.1981 52.4317C46.4622 54.1648 44.1079 55.1384 41.653 55.1384H23.1406C20.6857 55.1384 18.3313 54.1648 16.5954 52.4317C14.8595 50.6987 13.8843 48.3482 13.8843 45.8973V27.4152C13.8843 24.9643 14.8595 22.6138 16.5954 20.8808C18.3313 19.1477 20.6857 18.1741 23.1406 18.1741H41.653C44.1079 18.1741 46.4622 19.1477 48.1981 20.8808C49.934 22.6138 50.9092 24.9643 50.9092 27.4152V45.8973Z" fill="#020B24"/>
</g>
<defs>
<clipPath id="clip0_868_27">
<rect width="69.1131" height="69" fill="white"/>
</clipPath>
</defs>
</svg>
