<svg width="62" height="61" viewBox="0 0 62 61" fill="none" xmlns="http://www.w3.org/2000/svg">
<g clip-path="url(#clip0_656_399)">
<path fill-rule="evenodd" clip-rule="evenodd" d="M0.547485 30.5C0.547485 13.6554 14.2252 0 31.0975 0C47.9697 0 61.6475 13.6554 61.6475 30.5C61.6475 47.3446 47.9697 61 31.0975 61C14.2252 61 0.547485 47.3446 0.547485 30.5ZM22.1368 25.2614H15.2135V46.0291H22.1368V25.2614ZM22.5929 18.8372C22.5479 16.8009 21.0894 15.25 18.7209 15.25C16.3525 15.25 14.8042 16.8009 14.8042 18.8372C14.8042 20.8312 16.3068 22.4268 18.631 22.4268H18.6753C21.0894 22.4268 22.5929 20.8312 22.5929 18.8372ZM47.1049 34.1215C47.1049 27.7427 43.6894 24.7738 39.1335 24.7738C35.4577 24.7738 33.8121 26.7894 32.8932 28.2035V25.262H25.969C26.0603 27.2107 25.969 46.0296 25.969 46.0296H32.8932V34.4312C32.8932 33.8105 32.9381 33.1914 33.1212 32.747C33.6216 31.507 34.7608 30.2232 36.6735 30.2232C39.1797 30.2232 40.1817 32.1276 40.1817 34.9183V46.0291H47.1047L47.1049 34.1215Z" fill="#765197"/>
<path fill-rule="evenodd" clip-rule="evenodd" d="M0.547485 30.5C0.547485 13.6554 14.2252 0 31.0975 0C47.9697 0 61.6475 13.6554 61.6475 30.5C61.6475 47.3446 47.9697 61 31.0975 61C14.2252 61 0.547485 47.3446 0.547485 30.5ZM22.1368 25.2614H15.2135V46.0291H22.1368V25.2614ZM22.5929 18.8372C22.5479 16.8009 21.0894 15.25 18.7209 15.25C16.3525 15.25 14.8042 16.8009 14.8042 18.8372C14.8042 20.8312 16.3068 22.4268 18.631 22.4268H18.6753C21.0894 22.4268 22.5929 20.8312 22.5929 18.8372ZM47.1049 34.1215C47.1049 27.7427 43.6894 24.7738 39.1335 24.7738C35.4577 24.7738 33.8121 26.7894 32.8932 28.2035V25.262H25.969C26.0603 27.2107 25.969 46.0296 25.969 46.0296H32.8932V34.4312C32.8932 33.8105 32.9381 33.1914 33.1212 32.747C33.6216 31.507 34.7608 30.2232 36.6735 30.2232C39.1797 30.2232 40.1817 32.1276 40.1817 34.9183V46.0291H47.1047L47.1049 34.1215Z" fill="url(#paint0_linear_656_399)"/>
</g>
<defs>
<linearGradient id="paint0_linear_656_399" x1="31.0975" y1="0" x2="31.0975" y2="61" gradientUnits="userSpaceOnUse">
<stop stop-color="#765197"/>
<stop offset="1" stop-color="#D171B9"/>
</linearGradient>
<clipPath id="clip0_656_399">
<rect width="61.1" height="61" fill="white" transform="translate(0.547485)"/>
</clipPath>
</defs>
</svg>
