<svg width="79" height="78" viewBox="0 0 79 78" fill="none" xmlns="http://www.w3.org/2000/svg">
<path d="M77.6279 39C77.6279 60.2622 60.363 77.5 39.0639 77.5C17.7649 77.5 0.5 60.2622 0.5 39C0.5 17.7378 17.7649 0.5 39.0639 0.5C60.363 0.5 77.6279 17.7378 77.6279 39Z" stroke="url(#paint0_linear_656_407)"/>
<path fill-rule="evenodd" clip-rule="evenodd" d="M39.5648 17.875C30.6815 17.875 23.4968 25.0479 23.4968 33.9167C23.4968 45.9479 39.5648 59.125 39.5648 59.125C39.5648 59.125 55.6328 45.9479 55.6328 33.9167C55.6328 25.0479 48.4481 17.875 39.5648 17.875ZM39.5648 40.7917C43.3681 40.7917 46.4511 37.7137 46.4511 33.9167C46.4511 30.1197 43.3681 27.0417 39.5648 27.0417C35.7615 27.0417 32.6785 30.1197 32.6785 33.9167C32.6785 37.7137 35.7615 40.7917 39.5648 40.7917Z" fill="url(#paint1_linear_656_407)"/>
<defs>
<linearGradient id="paint0_linear_656_407" x1="39.0639" y1="0" x2="39.0639" y2="78" gradientUnits="userSpaceOnUse">
<stop stop-color="#765197"/>
<stop offset="1" stop-color="#D171B9"/>
</linearGradient>
<linearGradient id="paint1_linear_656_407" x1="39.5648" y1="17.875" x2="39.5648" y2="59.125" gradientUnits="userSpaceOnUse">
<stop stop-color="#765197"/>
<stop offset="1" stop-color="#D171B9"/>
</linearGradient>
</defs>
</svg>
