<svg width="27" height="27" viewBox="0 0 27 27" fill="none" xmlns="http://www.w3.org/2000/svg">
<g clip-path="url(#clip0_167_257)">
<path d="M2.7 5.4H24.3C25.7904 5.4 27 4.19175 27 2.7C27 1.20825 25.7917 0 24.3 0H2.7C1.20825 0 0 1.20825 0 2.7C0 4.19175 1.20825 5.4 2.7 5.4ZM24.3 10.8H2.7C1.20825 10.8 0 12.0083 0 13.5C0 14.9917 1.20825 16.2 2.7 16.2H24.3C25.7904 16.2 27 14.9917 27 13.5C27 12.0083 25.7917 10.8 24.3 10.8ZM24.3 21.6H2.7C1.20825 21.6 0 22.8083 0 24.3C0 25.7917 1.20825 27 2.7 27H24.3C25.7904 27 27 25.7917 27 24.3C27 22.8083 25.7917 21.6 24.3 21.6Z" fill="#F5F8F5"/>
</g>
<defs>
<clipPath id="clip0_167_257">
<rect width="27" height="27" fill="white"/>
</clipPath>
</defs>
</svg>
