<svg width="32" height="32" viewBox="0 0 32 32" fill="none" xmlns="http://www.w3.org/2000/svg">
<path d="M7.58224 2.40955C7.07549 4.19774 6.85823 6.0603 6.93929 7.9218C7.31017 16.7364 14.29 23.8173 22.8201 24.0483C22.96 24.0483 23.1029 24.0483 23.2427 24.0483C25.4594 24.0529 27.6535 23.587 29.689 22.6793C28.3325 24.8212 26.4811 26.5797 24.3023 27.7957C22.1234 29.0117 19.6858 29.6469 17.2099 29.6439C9.09615 29.6439 2.4006 22.8223 2.28356 14.4384C2.24694 12.1523 2.70353 9.8864 3.62011 7.80562C4.53668 5.72484 5.89021 3.88147 7.58224 2.40955ZM7.602 0C7.08011 0.0029479 6.57629 0.197971 6.18081 0.550125C4.21188 2.24665 2.63504 4.3773 1.5659 6.7859C0.496762 9.19449 -0.0375771 11.82 0.00205392 14.4699C0.138853 24.1521 7.84368 32 17.2083 32C20.0697 32.0011 22.886 31.2638 25.4022 29.855C27.9184 28.4462 30.0548 26.4104 31.6178 23.932C32.659 22.2864 31.4172 20.2792 29.7619 20.2792C29.4476 20.2807 29.1371 20.3497 28.8499 20.4819C27.0815 21.2806 25.1724 21.6921 23.2427 21.6907H22.8779C15.5455 21.4973 9.53543 15.4035 9.21623 7.82435C9.1458 6.20591 9.33743 4.58667 9.78319 3.03355C10.2559 1.38474 8.9852 0 7.602 0Z" fill="white"/>
</svg>
