<svg width="79" height="78" viewBox="0 0 79 78" fill="none" xmlns="http://www.w3.org/2000/svg">
<path d="M77.6279 39C77.6279 60.2622 60.363 77.5 39.0639 77.5C17.7649 77.5 0.5 60.2622 0.5 39C0.5 17.7378 17.7649 0.5 39.0639 0.5C60.363 0.5 77.6279 17.7378 77.6279 39Z" stroke="url(#paint0_linear_656_402)"/>
<g clip-path="url(#clip0_656_402)">
<path d="M39.5647 14.4375C52.8531 14.4375 63.6667 25.2334 63.6667 38.5C63.6667 51.7666 52.8531 62.5625 39.5647 62.5625C26.2764 62.5625 15.4628 51.7666 15.4628 38.5C15.4628 25.2334 26.2764 14.4375 39.5647 14.4375ZM39.5647 11C24.3531 11 12.0197 23.3132 12.0197 38.5C12.0197 53.6868 24.3531 66 39.5647 66C54.7764 66 67.1098 53.6868 67.1098 38.5C67.1098 23.3132 54.7764 11 39.5647 11ZM54.921 47.6947L54.7663 47.2247C54.4031 46.1438 53.2061 45.0159 52.1032 44.7137L48.0314 43.6025C46.9285 43.3038 45.3549 43.7066 44.5447 44.5156L43.0719 45.986C37.7189 44.5392 33.5192 40.3464 32.0733 35.0021L33.5461 33.5317C34.3531 32.7261 34.7566 31.155 34.4574 30.0506L33.3476 25.9854C33.0484 24.8843 31.9118 23.6892 30.8292 23.3267L30.3651 23.1722C29.279 22.8096 27.729 23.1755 26.922 23.9846L24.7162 26.1868C24.3228 26.5762 24.0706 27.694 24.0706 27.6974C23.9966 34.6866 26.7405 41.4173 31.69 46.362C36.626 51.29 43.3442 54.026 50.3212 53.9654C50.3582 53.9654 51.5116 53.7204 51.9049 53.3275L54.1107 51.1254C54.9177 50.3231 55.2807 48.7755 54.921 47.6947Z" fill="url(#paint1_linear_656_402)"/>
</g>
<defs>
<linearGradient id="paint0_linear_656_402" x1="39.0639" y1="0" x2="39.0639" y2="78" gradientUnits="userSpaceOnUse">
<stop stop-color="#765197"/>
<stop offset="1" stop-color="#D171B9"/>
</linearGradient>
<linearGradient id="paint1_linear_656_402" x1="39.5647" y1="11" x2="39.5647" y2="66" gradientUnits="userSpaceOnUse">
<stop stop-color="#765197"/>
<stop offset="1" stop-color="#D171B9"/>
</linearGradient>
<clipPath id="clip0_656_402">
<rect width="55.0902" height="55" fill="white" transform="translate(12.0197 11)"/>
</clipPath>
</defs>
</svg>
