<svg width="79" height="78" viewBox="0 0 79 78" fill="none" xmlns="http://www.w3.org/2000/svg">
<path d="M77.6279 39C77.6279 60.2622 60.363 77.5 39.0639 77.5C17.7649 77.5 0.5 60.2622 0.5 39C0.5 17.7378 17.7649 0.5 39.0639 0.5C60.363 0.5 77.6279 17.7378 77.6279 39Z" stroke="url(#paint0_linear_784_25)"/>
<path d="M59.7914 52.4784L59.5823 51.8484C59.0871 50.3765 57.4639 48.8414 55.9727 48.4369L50.4538 46.9293C48.9572 46.5221 46.8223 47.0696 45.7273 48.1645L43.7299 50.1619C36.4709 48.2004 30.7787 42.5081 28.8199 35.2505L30.8174 33.253C31.9124 32.158 32.4598 30.0259 32.0526 28.5293L30.5477 23.0077C30.1406 21.5137 28.6026 19.8906 27.1335 19.4008L26.5035 19.189C25.0316 18.6993 22.9325 19.1946 21.8375 20.2895L18.8497 23.28C18.3159 23.811 17.9748 25.3297 17.9748 25.3352C17.8703 34.8213 21.5899 43.9606 28.2999 50.6708C34.9935 57.3644 44.0987 61.0785 53.5572 60.9987C53.6066 60.9987 55.1693 60.6631 55.7031 60.132L58.6909 57.1442C59.7858 56.0494 60.2811 53.9503 59.7914 52.4784Z" fill="url(#paint1_linear_784_25)"/>
<defs>
<linearGradient id="paint0_linear_784_25" x1="39.0639" y1="0" x2="39.0639" y2="78" gradientUnits="userSpaceOnUse">
<stop stop-color="#765197"/>
<stop offset="1" stop-color="#D171B9"/>
</linearGradient>
<linearGradient id="paint1_linear_784_25" x1="38.9765" y1="19" x2="38.9765" y2="61" gradientUnits="userSpaceOnUse">
<stop stop-color="#765197"/>
<stop offset="1" stop-color="#D171B9"/>
</linearGradient>
</defs>
</svg>
