<svg width="100" height="100" viewBox="0 0 100 100" fill="none" xmlns="http://www.w3.org/2000/svg">
<g clip-path="url(#clip0_723_2)">
<path d="M77.7639 0H22.2361C9.95545 0 0 10.2602 0 22.9167V77.0833C0 89.7398 9.95545 100 22.2361 100H77.7639C90.0446 100 100 89.7398 100 77.0833V22.9167C100 10.2602 90.0446 0 77.7639 0Z" fill="#001D23"/>
<path d="M28.8906 32.5605C28.8906 32.2617 28.9395 32.1699 29.1875 32.1699C31.2227 32.1211 35.1406 32.0215 38.9121 32.0215C48.9336 32.0215 52.4082 37.5781 52.4082 42.9863C52.4082 51.0254 46.2051 54.4473 38.5645 54.4473H35.7422V64.2129C35.7422 64.4609 35.6426 64.6035 35.3516 64.6035H29.2363C28.9883 64.6035 28.8906 64.4551 28.8906 64.2129V32.5605ZM35.7422 48.3379C36.5859 48.3867 37.1309 48.3867 38.5215 48.3867C42.4414 48.3867 45.5664 47.1953 45.5664 43.127C45.5664 40.002 43.4336 38.0176 39.1211 38.0176C37.5332 38.0176 36.1914 38.0664 35.7461 38.1172L35.7422 48.3379Z" fill="#01C8FE"/>
<path d="M65.1562 44.9629C62.8242 44.9629 62.0801 45.8066 62.0801 46.6504C62.0801 47.4941 62.7266 48.1387 65.5957 49.2305C71.5996 51.4141 73.4844 53.7461 73.4844 57.2676C73.4844 61.9824 69.8125 65.1074 63.2637 65.1074C60.2383 65.1074 57.5996 64.5605 56.0703 63.7187C55.965 63.6719 55.8758 63.595 55.814 63.4977C55.7522 63.4005 55.7204 63.2871 55.7227 63.1719V57.8125C55.7227 57.5137 55.918 57.3652 56.1133 57.5137C58.3965 58.9531 61.1738 59.498 63.4063 59.498C65.7383 59.498 66.7813 58.8535 66.7813 57.8125C66.7813 56.8691 65.9375 56.1738 63.0098 55.0781C57.4043 52.9941 55.5684 50.6113 55.5684 47.0391C55.5684 43.1699 58.6934 39.4492 65.2422 39.4492C68.1719 39.4492 70.4531 39.8398 71.6875 40.4414C71.8046 40.5001 71.9006 40.5935 71.9625 40.7089C72.0244 40.8243 72.0491 40.956 72.0332 41.0859V46.0469C72.0332 46.3457 71.8379 46.543 71.5371 46.3945C69.9219 45.5586 67.3828 44.9629 65.1562 44.9629Z" fill="#01C8FE"/>
</g>
<defs>
<clipPath id="clip0_723_2">
<rect width="100" height="100" fill="white"/>
</clipPath>
</defs>
</svg>
