<svg width="108" height="96" viewBox="0 0 108 96" fill="none" xmlns="http://www.w3.org/2000/svg">
<path d="M53.7531 57.7889C59.1593 57.7889 63.542 53.4062 63.542 48C63.542 42.5937 59.1593 38.2111 53.7531 38.2111C48.3468 38.2111 43.9642 42.5937 43.9642 48C43.9642 53.4062 48.3468 57.7889 53.7531 57.7889Z" fill="#61DAFB"/>
<path d="M90.9338 31.8569C89.0447 31.1699 87.0698 30.483 85.0089 29.8819C85.5241 27.8211 85.9535 25.7603 86.297 23.7853C88.1002 12.4508 86.1252 4.46512 80.6297 1.37388C78.9982 0.429338 77.195 0 75.1342 0C69.1234 0 61.4812 4.46512 53.7531 11.9356C46.025 4.46512 38.3828 0 32.3721 0C30.3113 0 28.5081 0.429338 26.8766 1.37388C21.381 4.55098 19.4061 12.5367 21.2093 23.7853C21.5528 25.7603 21.9821 27.8211 22.4973 29.8819C20.4365 30.483 18.4615 31.0841 16.5725 31.8569C5.839 35.9785 0 41.6458 0 48C0 54.3542 5.92487 60.0215 16.5725 64.1431C18.4615 64.8301 20.4365 65.517 22.4973 66.1181C21.9821 68.1789 21.5528 70.2397 21.2093 72.2147C19.4061 83.5492 21.381 91.5349 26.8766 94.6261C28.5081 95.5707 30.3113 96 32.3721 96C38.4687 96 46.1109 91.5349 53.7531 84.0644C61.4812 91.5349 69.1234 96 75.1342 96C77.195 96 78.9982 95.5707 80.6297 94.6261C86.1252 91.449 88.1002 83.4633 86.297 72.2147C85.9535 70.2397 85.5241 68.1789 85.0089 66.1181C87.0698 65.517 89.0447 64.9159 90.9338 64.1431C101.667 60.0215 107.506 54.3542 107.506 48C107.506 41.6458 101.667 35.9785 90.9338 31.8569ZM78.2254 5.66726C81.746 7.72809 82.9481 14.0823 81.4884 23.0984C81.2308 24.9016 80.8014 26.7907 80.2862 28.7657C75.8211 27.7352 71.0984 27.0483 66.1181 26.619C63.1986 22.4973 60.1932 18.805 57.1878 15.4562C63.542 9.18783 69.9821 4.89445 75.22 4.89445C76.3363 4.89445 77.3667 5.15206 78.2254 5.66726ZM68.6082 56.5868C67.0626 59.3345 65.2594 62.0823 63.3703 64.8301C60.1932 65.0877 57.0161 65.1735 53.7531 65.1735C50.4043 65.1735 47.2272 65.0877 44.136 64.8301C42.2469 62.0823 40.5295 59.3345 38.9839 56.5868C37.3524 53.7531 35.8068 50.8336 34.4329 48C35.8068 45.1664 37.3524 42.2469 38.9839 39.4132C40.5295 36.6655 42.3327 33.9177 44.2218 31.1699C47.3989 30.9123 50.576 30.8265 53.839 30.8265C57.1878 30.8265 60.3649 30.9123 63.4562 31.1699C65.3453 33.9177 67.0626 36.6655 68.6082 39.4132C70.2397 42.2469 71.7853 45.1664 73.1592 48C71.6995 50.8336 70.2397 53.6673 68.6082 56.5868ZM75.7352 53.7531C77.0233 56.7585 78.0537 59.678 78.9982 62.5975C76.0787 63.2844 72.9875 63.7996 69.7245 64.229C70.7549 62.5975 71.8712 60.8801 72.8157 59.0769C73.8461 57.2737 74.7907 55.4705 75.7352 53.7531ZM53.7531 77.0233C51.6923 74.7907 49.7174 72.3864 47.8283 69.8962C49.8032 69.9821 51.7782 70.068 53.7531 70.068C55.7281 70.068 57.703 69.9821 59.678 69.8962C57.7889 72.3864 55.8139 74.7907 53.7531 77.0233ZM37.7818 64.1431C34.5188 63.7138 31.4275 63.1986 28.508 62.5116C29.4526 59.678 30.483 56.6726 31.771 53.6673C32.7156 55.3846 33.6601 57.1878 34.6905 58.9052C35.7209 60.7943 36.7513 62.4258 37.7818 64.1431ZM31.771 42.2469C30.483 39.2415 29.4526 36.322 28.508 33.4025C31.4275 32.7156 34.5188 32.2004 37.7818 31.771C36.7513 33.4025 35.6351 35.1199 34.6905 36.9231C33.6601 38.7263 32.7156 40.5295 31.771 42.2469ZM53.7531 18.9767C55.8139 21.2093 57.7889 23.6136 59.678 26.1038C57.703 26.0179 55.7281 25.932 53.7531 25.932C51.7782 25.932 49.8032 26.0179 47.8283 26.1038C49.7174 23.6136 51.6923 21.2093 53.7531 18.9767ZM72.8157 37.0089L69.7245 31.8569C72.9875 32.2862 76.0787 32.8014 78.9982 33.4884C78.0537 36.322 77.0233 39.3274 75.7352 42.3327C74.7907 40.5295 73.8461 38.7263 72.8157 37.0089ZM26.0179 23.0984C24.5581 14.0823 25.7603 7.72809 29.2809 5.66726C30.1395 5.15206 31.1699 4.89445 32.2862 4.89445C37.4383 4.89445 43.8784 9.10197 50.3184 15.4562C47.3131 18.7191 44.3077 22.4973 41.3882 26.619C36.4079 27.0483 31.6852 27.8211 27.22 28.7657C26.7048 26.7907 26.3614 24.9016 26.0179 23.0984ZM4.80859 48C4.80859 43.9642 9.70304 39.6708 18.2898 36.4937C20.0072 35.8068 21.8962 35.2057 23.7853 34.6905C25.1592 38.9839 26.8766 43.5349 28.9374 48.0859C26.8766 52.6369 25.0733 57.102 23.7853 61.3953C11.9356 57.9606 4.80859 52.8086 4.80859 48ZM29.2809 90.3327C25.7603 88.2719 24.5581 81.9177 26.0179 72.9016C26.2755 71.0984 26.7048 69.2093 27.22 67.2344C31.6852 68.2648 36.4079 68.9517 41.3882 69.381C44.3077 73.5027 47.3131 77.195 50.3184 80.5438C43.9642 86.8122 37.5241 91.1055 32.2862 91.1055C31.1699 91.1055 30.1395 90.8479 29.2809 90.3327ZM81.4884 72.9016C82.9481 81.9177 81.746 88.2719 78.2254 90.3327C77.3667 90.8479 76.3363 91.1055 75.22 91.1055C70.068 91.1055 63.6279 86.898 57.1878 80.5438C60.1932 77.2809 63.1986 73.5027 66.1181 69.381C71.0984 68.9517 75.8211 68.1789 80.2862 67.2344C80.8014 69.2093 81.1449 71.0984 81.4884 72.9016ZM89.2165 59.5063C87.4991 60.1932 85.61 60.7943 83.7209 61.3095C82.347 57.0161 80.6297 52.4651 78.5689 47.9141C80.6297 43.3632 82.4329 38.898 83.7209 34.6047C95.5707 38.0394 102.698 43.1914 102.698 48C102.698 52.0358 97.7174 56.3292 89.2165 59.5063Z" fill="#61DAFB"/>
</svg>
