<svg width="46" height="46" viewBox="0 0 46 46" fill="none" xmlns="http://www.w3.org/2000/svg">
<path d="M5.75 21.5625H1.4375C0.644 21.5625 0 22.2065 0 23C0 23.7935 0.644 24.4375 1.4375 24.4375H5.75C6.5435 24.4375 7.1875 23.7935 7.1875 23C7.1875 22.2065 6.5435 21.5625 5.75 21.5625ZM23 7.1875C23.7935 7.1875 24.4375 6.5435 24.4375 5.75V1.4375C24.4375 0.644 23.7935 0 23 0C22.2065 0 21.5625 0.644 21.5625 1.4375V5.75C21.5625 6.5435 22.2065 7.1875 23 7.1875ZM36.8302 11.1837L39.8504 8.1635C40.4067 7.60721 40.4067 6.70585 39.8504 6.14957C39.2942 5.59328 38.3927 5.59328 37.8364 6.14957L34.8162 9.16978C34.2599 9.72607 34.2599 10.6274 34.8162 11.1837C35.3726 11.7401 36.2739 11.7401 36.8302 11.1837ZM10.6519 33.3356L7.63164 36.3559C7.07536 36.9121 7.07536 37.8135 7.63164 38.3698C8.18793 38.9261 9.08928 38.9261 9.64557 38.3698L12.6658 35.3496C13.2221 34.7933 13.2221 33.8919 12.6658 33.3356C12.1095 32.7794 11.2082 32.7793 10.6519 33.3356ZM9.7865 11.8191C10.3486 12.3812 11.2585 12.3812 11.8191 11.8191C12.3797 11.2571 12.3797 10.3471 11.8191 9.78658L8.77022 6.73614C8.20814 6.17407 7.29822 6.17407 6.73757 6.73614C6.1755 7.29822 6.1755 8.20814 6.73757 8.76879L9.7865 11.8191ZM23 38.8125C22.2065 38.8125 21.5625 39.4565 21.5625 40.25V44.5625C21.5625 45.356 22.2065 46 23 46C23.7935 46 24.4375 45.356 24.4375 44.5625V40.25C24.4375 39.4565 23.7935 38.8125 23 38.8125ZM36.2135 34.1809C35.6514 33.6188 34.7415 33.6188 34.1809 34.1809C33.6188 34.743 33.6188 35.6529 34.1809 36.2135L37.2298 39.2624C37.7919 39.8245 38.7018 39.8245 39.2624 39.2624C39.8231 38.7003 39.8245 37.7904 39.2624 37.2298L36.2135 34.1809ZM44.5625 21.5625H40.25C39.4565 21.5625 38.8125 22.2065 38.8125 23C38.8125 23.7935 39.4565 24.4375 40.25 24.4375H44.5625C45.356 24.4375 46 23.7935 46 23C46 22.2065 45.356 21.5625 44.5625 21.5625ZM23 10.0539C15.8499 10.0539 10.0539 15.8499 10.0539 23C10.0539 30.1501 15.8499 35.9461 23 35.9461C30.1501 35.9461 35.9461 30.1501 35.9461 23C35.9461 15.8499 30.1501 10.0539 23 10.0539ZM23 33.0596C17.4441 33.0596 12.9404 28.5559 12.9404 23C12.9404 17.4441 17.4441 12.9404 23 12.9404C28.5559 12.9404 33.0596 17.4441 33.0596 23C33.0596 28.5559 28.5559 33.0596 23 33.0596Z" fill="#EFEAEA"/>
</svg>
