<svg width="63" height="62" viewBox="0 0 63 62" fill="none" xmlns="http://www.w3.org/2000/svg">
<g clip-path="url(#clip0_868_17)">
<path fill-rule="evenodd" clip-rule="evenodd" d="M62.4722 31C62.4722 48.1208 48.5703 62 31.4214 62C14.2726 62 0.370605 48.1208 0.370605 31C0.370605 13.8792 14.2726 0 31.4214 0C48.5703 0 62.4722 13.8792 62.4722 31ZM21.1637 28.1603C18.0531 29.5161 14.8572 30.9093 11.9348 32.5164C10.4088 33.6319 12.4369 34.421 14.3397 35.1611C14.6422 35.2788 14.9415 35.3952 15.2229 35.5114C15.457 35.5834 15.6951 35.659 15.9364 35.7358C18.0526 36.4089 20.4122 37.1594 22.4668 36.0304C25.8417 34.0948 29.0266 31.8571 32.2092 29.6211C33.2519 28.8885 34.2943 28.1561 35.343 27.4346C35.3922 27.4032 35.4475 27.3673 35.5082 27.3282C36.4016 26.7499 38.411 25.4496 37.6677 27.2414C35.9102 29.1603 34.0276 30.8588 32.1349 32.5668C30.8593 33.7178 29.5789 34.8731 28.3291 36.1027C27.2407 36.9857 26.1103 38.7614 27.3292 39.9979C30.1366 41.9599 32.9878 43.8744 35.8374 45.7879C36.7646 46.4105 37.6919 47.0331 38.6172 47.6572C40.1855 48.9073 42.6366 47.896 42.9814 45.9426C43.1347 45.044 43.2887 44.1455 43.4426 43.2469C44.2934 38.2809 45.1445 33.313 45.8963 28.3308C45.9985 27.5492 46.1143 26.7677 46.2302 25.9859C46.5111 24.0909 46.7924 22.1935 46.8802 20.2883C46.6538 18.387 44.3446 18.8051 43.0597 19.2327C36.4546 21.7418 29.9156 24.437 23.4024 27.1798C22.6646 27.506 21.9166 27.8321 21.1637 28.1603Z" fill="#020B24"/>
</g>
<defs>
<clipPath id="clip0_868_17">
<rect width="62.1016" height="62" fill="white" transform="translate(0.370605)"/>
</clipPath>
</defs>
</svg>
