<svg width="63" height="62" viewBox="0 0 63 62" fill="none" xmlns="http://www.w3.org/2000/svg">
<g clip-path="url(#clip0_656_376)">
<path fill-rule="evenodd" clip-rule="evenodd" d="M62.4721 31C62.4721 48.1208 48.5701 62 31.4212 62C14.2724 62 0.370422 48.1208 0.370422 31C0.370422 13.8792 14.2724 0 31.4212 0C48.5701 0 62.4721 13.8792 62.4721 31ZM21.1635 28.1603C18.053 29.5161 14.8571 30.9093 11.9346 32.5164C10.4086 33.6319 12.4367 34.421 14.3395 35.1611C14.642 35.2788 14.9413 35.3952 15.2227 35.5114C15.4569 35.5834 15.6949 35.659 15.9362 35.7358C18.0524 36.4089 20.412 37.1594 22.4666 36.0304C25.8415 34.0948 29.0264 31.8571 32.209 29.6211C33.2517 28.8885 34.2941 28.1561 35.3428 27.4346C35.392 27.4032 35.4474 27.3673 35.508 27.3282C36.4014 26.7499 38.4108 25.4496 37.6675 27.2414C35.91 29.1603 34.0274 30.8588 32.1348 32.5668C30.8591 33.7178 29.5788 34.8731 28.329 36.1027C27.2405 36.9857 26.1101 38.7614 27.329 39.9979C30.1364 41.9599 32.9876 43.8744 35.8372 45.7879C36.7644 46.4105 37.6917 47.0331 38.617 47.6572C40.1853 48.9073 42.6364 47.896 42.9812 45.9426C43.1345 45.044 43.2885 44.1455 43.4424 43.2469C44.2932 38.2809 45.1443 33.313 45.8961 28.3308C45.9983 27.5492 46.1141 26.7677 46.23 25.9859C46.5109 24.0909 46.7922 22.1935 46.88 20.2883C46.6536 18.387 44.3445 18.8051 43.0595 19.2327C36.4544 21.7418 29.9154 24.437 23.4022 27.1798C22.6644 27.506 21.9165 27.8321 21.1635 28.1603Z" fill="#765197"/>
<path fill-rule="evenodd" clip-rule="evenodd" d="M62.4721 31C62.4721 48.1208 48.5701 62 31.4212 62C14.2724 62 0.370422 48.1208 0.370422 31C0.370422 13.8792 14.2724 0 31.4212 0C48.5701 0 62.4721 13.8792 62.4721 31ZM21.1635 28.1603C18.053 29.5161 14.8571 30.9093 11.9346 32.5164C10.4086 33.6319 12.4367 34.421 14.3395 35.1611C14.642 35.2788 14.9413 35.3952 15.2227 35.5114C15.4569 35.5834 15.6949 35.659 15.9362 35.7358C18.0524 36.4089 20.412 37.1594 22.4666 36.0304C25.8415 34.0948 29.0264 31.8571 32.209 29.6211C33.2517 28.8885 34.2941 28.1561 35.3428 27.4346C35.392 27.4032 35.4474 27.3673 35.508 27.3282C36.4014 26.7499 38.4108 25.4496 37.6675 27.2414C35.91 29.1603 34.0274 30.8588 32.1348 32.5668C30.8591 33.7178 29.5788 34.8731 28.329 36.1027C27.2405 36.9857 26.1101 38.7614 27.329 39.9979C30.1364 41.9599 32.9876 43.8744 35.8372 45.7879C36.7644 46.4105 37.6917 47.0331 38.617 47.6572C40.1853 48.9073 42.6364 47.896 42.9812 45.9426C43.1345 45.044 43.2885 44.1455 43.4424 43.2469C44.2932 38.2809 45.1443 33.313 45.8961 28.3308C45.9983 27.5492 46.1141 26.7677 46.23 25.9859C46.5109 24.0909 46.7922 22.1935 46.88 20.2883C46.6536 18.387 44.3445 18.8051 43.0595 19.2327C36.4544 21.7418 29.9154 24.437 23.4022 27.1798C22.6644 27.506 21.9165 27.8321 21.1635 28.1603Z" fill="url(#paint0_linear_656_376)"/>
</g>
<defs>
<linearGradient id="paint0_linear_656_376" x1="31.4212" y1="0" x2="31.4212" y2="62" gradientUnits="userSpaceOnUse">
<stop stop-color="#765197"/>
<stop offset="1" stop-color="#D171B9"/>
</linearGradient>
<clipPath id="clip0_656_376">
<rect width="62.1016" height="62" fill="white" transform="translate(0.370422)"/>
</clipPath>
</defs>
</svg>
