<svg width="64" height="24" viewBox="0 0 64 24" fill="none" xmlns="http://www.w3.org/2000/svg">
<rect width="64" height="24" rx="12" fill="#020B24"/>
<rect x="28" y="2" width="32" height="20" rx="10" fill="#F5F8F5"/>
<g clip-path="url(#clip0_760_19)">
<path d="M11.5 11.625H10.375C10.168 11.625 10 11.793 10 12C10 12.207 10.168 12.375 10.375 12.375H11.5C11.707 12.375 11.875 12.207 11.875 12C11.875 11.793 11.707 11.625 11.5 11.625ZM16 7.875C16.207 7.875 16.375 7.707 16.375 7.5V6.375C16.375 6.168 16.207 6 16 6C15.793 6 15.625 6.168 15.625 6.375V7.5C15.625 7.707 15.793 7.875 16 7.875ZM19.6079 8.91749L20.3958 8.12961C20.5409 7.98449 20.5409 7.74935 20.3958 7.60423C20.2506 7.45912 20.0155 7.45912 19.8704 7.60423L19.0825 8.39212C18.9374 8.53724 18.9374 8.77237 19.0825 8.91749C19.2276 9.06264 19.4628 9.06264 19.6079 8.91749ZM12.7787 14.6963L11.9909 15.4841C11.8457 15.6293 11.8457 15.8644 11.9909 16.0095C12.136 16.1546 12.3711 16.1546 12.5162 16.0095L13.3041 15.2216C13.4492 15.0765 13.4492 14.8414 13.3041 14.6963C13.159 14.5511 12.9239 14.5511 12.7787 14.6963ZM12.553 9.08325C12.6996 9.22989 12.937 9.22989 13.0833 9.08325C13.2295 8.93663 13.2295 8.69926 13.0833 8.55302L12.2879 7.75726C12.1413 7.61063 11.9039 7.61063 11.7576 7.75726C11.611 7.90388 11.611 8.14126 11.7576 8.28751L12.553 9.08325ZM16 16.125C15.793 16.125 15.625 16.293 15.625 16.5V17.625C15.625 17.832 15.793 18 16 18C16.207 18 16.375 17.832 16.375 17.625V16.5C16.375 16.293 16.207 16.125 16 16.125ZM19.447 14.9168C19.3004 14.7701 19.063 14.7701 18.9168 14.9168C18.7701 15.0634 18.7701 15.3008 18.9168 15.447L19.7121 16.2424C19.8588 16.389 20.0961 16.389 20.2424 16.2424C20.3886 16.0957 20.389 15.8584 20.2424 15.7121L19.447 14.9168ZM21.625 11.625H20.5C20.293 11.625 20.125 11.793 20.125 12C20.125 12.207 20.293 12.375 20.5 12.375H21.625C21.832 12.375 22 12.207 22 12C22 11.793 21.832 11.625 21.625 11.625ZM16 8.62274C14.1348 8.62274 12.6227 10.1348 12.6227 12C12.6227 13.8653 14.1348 15.3773 16 15.3773C17.8653 15.3773 19.3773 13.8653 19.3773 12C19.3773 10.1348 17.8653 8.62274 16 8.62274ZM16 14.6243C14.5506 14.6243 13.3758 13.4494 13.3758 12C13.3758 10.5506 14.5506 9.37575 16 9.37575C17.4494 9.37575 18.6243 10.5506 18.6243 12C18.6243 13.4494 17.4494 14.6243 16 14.6243Z" fill="#BFB7B7"/>
</g>
<path d="M40.8433 6.90358C40.6533 7.57415 40.5718 8.27261 40.6022 8.97068C40.7413 12.2761 43.3587 14.9315 46.5575 15.0181C46.6099 15.0181 46.6635 15.0181 46.7159 15.0181C47.5472 15.0199 48.3699 14.8451 49.1332 14.5047C48.6246 15.3079 47.9303 15.9674 47.1133 16.4234C46.2962 16.8794 45.3821 17.1176 44.4536 17.1165C41.411 17.1165 38.9002 14.5584 38.8563 11.4144C38.8426 10.5571 39.0138 9.7074 39.3575 8.92711C39.7012 8.14682 40.2088 7.45555 40.8433 6.90358ZM40.8507 6C40.655 6.00111 40.4661 6.07424 40.3178 6.2063C39.5794 6.84249 38.9881 7.64149 38.5872 8.54471C38.1863 9.44793 37.9859 10.4325 38.0008 11.4262C38.0521 15.057 40.9413 18 44.4531 18C45.526 18.0004 46.5822 17.7239 47.5257 17.1956C48.4693 16.6673 49.2704 15.9039 49.8566 14.9745C50.247 14.3574 49.7813 13.6047 49.1606 13.6047C49.0427 13.6053 48.9263 13.6312 48.8186 13.6807C48.1555 13.9802 47.4396 14.1346 46.7159 14.134H46.5791C43.8295 14.0615 41.5757 11.7763 41.456 8.93413C41.4296 8.32722 41.5015 7.72 41.6687 7.13758C41.8459 6.51928 41.3694 6 40.8507 6Z" fill="#020B24"/>
<defs>
<clipPath id="clip0_760_19">
<rect width="12" height="12" fill="white" transform="translate(10 6)"/>
</clipPath>
</defs>
</svg>
