<svg width="64" height="24" viewBox="0 0 64 24" fill="none" xmlns="http://www.w3.org/2000/svg">
<rect width="64" height="24" rx="12" fill="#D9D9D9"/>
<rect x="4" y="2" width="32" height="20" rx="10" fill="white"/>
<g clip-path="url(#clip0_762_9)">
<path d="M15.5 11.625H14.375C14.168 11.625 14 11.793 14 12C14 12.207 14.168 12.375 14.375 12.375H15.5C15.707 12.375 15.875 12.207 15.875 12C15.875 11.793 15.707 11.625 15.5 11.625ZM20 7.875C20.207 7.875 20.375 7.707 20.375 7.5V6.375C20.375 6.168 20.207 6 20 6C19.793 6 19.625 6.168 19.625 6.375V7.5C19.625 7.707 19.793 7.875 20 7.875ZM23.6079 8.91749L24.3958 8.12961C24.5409 7.98449 24.5409 7.74935 24.3958 7.60423C24.2506 7.45912 24.0155 7.45912 23.8704 7.60423L23.0825 8.39212C22.9374 8.53724 22.9374 8.77237 23.0825 8.91749C23.2276 9.06264 23.4628 9.06264 23.6079 8.91749ZM16.7787 14.6963L15.9909 15.4841C15.8457 15.6293 15.8457 15.8644 15.9909 16.0095C16.136 16.1546 16.3711 16.1546 16.5162 16.0095L17.3041 15.2216C17.4492 15.0765 17.4492 14.8414 17.3041 14.6963C17.159 14.5511 16.9239 14.5511 16.7787 14.6963ZM16.553 9.08325C16.6996 9.22989 16.937 9.22989 17.0833 9.08325C17.2295 8.93663 17.2295 8.69926 17.0833 8.55302L16.2879 7.75726C16.1413 7.61063 15.9039 7.61063 15.7576 7.75726C15.611 7.90388 15.611 8.14126 15.7576 8.28751L16.553 9.08325ZM20 16.125C19.793 16.125 19.625 16.293 19.625 16.5V17.625C19.625 17.832 19.793 18 20 18C20.207 18 20.375 17.832 20.375 17.625V16.5C20.375 16.293 20.207 16.125 20 16.125ZM23.447 14.9168C23.3004 14.7701 23.063 14.7701 22.9168 14.9168C22.7701 15.0634 22.7701 15.3008 22.9168 15.447L23.7121 16.2424C23.8588 16.389 24.0961 16.389 24.2424 16.2424C24.3886 16.0957 24.389 15.8584 24.2424 15.7121L23.447 14.9168ZM25.625 11.625H24.5C24.293 11.625 24.125 11.793 24.125 12C24.125 12.207 24.293 12.375 24.5 12.375H25.625C25.832 12.375 26 12.207 26 12C26 11.793 25.832 11.625 25.625 11.625ZM20 8.62274C18.1348 8.62274 16.6227 10.1348 16.6227 12C16.6227 13.8653 18.1348 15.3773 20 15.3773C21.8653 15.3773 23.3773 13.8653 23.3773 12C23.3773 10.1348 21.8653 8.62274 20 8.62274ZM20 14.6243C18.5506 14.6243 17.3758 13.4494 17.3758 12C17.3758 10.5506 18.5506 9.37575 20 9.37575C21.4494 9.37575 22.6243 10.5506 22.6243 12C22.6243 13.4494 21.4494 14.6243 20 14.6243Z" fill="#020B24"/>
</g>
<path d="M44.8433 6.90358C44.6533 7.57415 44.5718 8.27261 44.6022 8.97068C44.7413 12.2761 47.3587 14.9315 50.5575 15.0181C50.6099 15.0181 50.6635 15.0181 50.7159 15.0181C51.5472 15.0199 52.3699 14.8451 53.1332 14.5047C52.6246 15.3079 51.9303 15.9674 51.1133 16.4234C50.2962 16.8794 49.3821 17.1176 48.4536 17.1165C45.411 17.1165 42.9002 14.5584 42.8563 11.4144C42.8426 10.5571 43.0138 9.7074 43.3575 8.92711C43.7012 8.14682 44.2088 7.45555 44.8433 6.90358ZM44.8507 6C44.655 6.00111 44.4661 6.07424 44.3178 6.2063C43.5794 6.84249 42.9881 7.64149 42.5872 8.54471C42.1863 9.44793 41.9859 10.4325 42.0008 11.4262C42.0521 15.057 44.9413 18 48.4531 18C49.526 18.0004 50.5822 17.7239 51.5257 17.1956C52.4693 16.6673 53.2704 15.9039 53.8566 14.9745C54.247 14.3574 53.7813 13.6047 53.1606 13.6047C53.0427 13.6053 52.9263 13.6312 52.8186 13.6807C52.1555 13.9802 51.4396 14.1346 50.7159 14.134H50.5791C47.8295 14.0615 45.5757 11.7763 45.456 8.93413C45.4296 8.32722 45.5015 7.72 45.6687 7.13758C45.8459 6.51928 45.3694 6 44.8507 6Z" fill="#BFB7B7"/>
<defs>
<clipPath id="clip0_762_9">
<rect width="12" height="12" fill="white" transform="translate(14 6)"/>
</clipPath>
</defs>
</svg>
