<svg width="47" height="52" viewBox="0 0 47 52" fill="none" xmlns="http://www.w3.org/2000/svg">
<path d="M45.2434 41.7577L31.4554 26.0007L45.2434 10.2428C47.5864 7.89875 47.5864 4.09975 45.2434 1.75675C42.8984 -0.58625 39.0994 -0.58525 36.7574 1.75775L23.5004 16.9097L10.2434 1.75775C7.90037 -0.58425 4.10238 -0.58525 1.75738 1.75675C-0.585625 4.10075 -0.585625 7.89975 1.75738 10.2428L15.5454 26.0007L1.75738 41.7577C-0.585625 44.1007 -0.585625 47.8997 1.75638 50.2427C4.10038 52.5867 7.89937 52.5867 10.2434 50.2427L23.5004 35.0907L36.7574 50.2427C39.1024 52.5867 42.9014 52.5867 45.2444 50.2427C47.5864 47.8997 47.5864 44.1007 45.2434 41.7577Z" fill="#020B24"/>
</svg>
