<svg width="42" height="42" viewBox="0 0 42 42" fill="none" xmlns="http://www.w3.org/2000/svg">
<g clip-path="url(#clip0_758_3)">
<path d="M40.4303 33.7274L28.1091 21.0006L40.4303 8.27303C42.524 6.37976 42.524 3.31134 40.4303 1.41891C38.3347 -0.47351 34.9399 -0.472702 32.847 1.41972L21.0004 13.6578L9.15367 1.41972C7.0599 -0.471894 3.66596 -0.472702 1.57042 1.41891C-0.523325 3.31214 -0.523325 6.38057 1.57042 8.27303L13.8916 21.0006L1.57042 33.7274C-0.523325 35.6198 -0.523326 38.6882 1.56953 40.5806C3.66417 42.4739 7.05901 42.4739 9.15367 40.5806L21.0004 28.3425L32.847 40.5806C34.9426 42.4739 38.3374 42.4739 40.4312 40.5806C42.524 38.6882 42.524 35.6198 40.4303 33.7274Z" fill="#F5F8F5"/>
</g>
<defs>
<clipPath id="clip0_758_3">
<rect width="42" height="42" fill="white"/>
</clipPath>
</defs>
</svg>
